<svg width="32" height="32" viewBox="0 0 32 32" fill="none" xmlns="http://www.w3.org/2000/svg">
<path opacity="0.2" d="M6.00155 23.5H25.9989C26.0863 23.4995 26.172 23.4762 26.2475 23.4324C26.3232 23.3883 26.3861 23.3252 26.4298 23.2492C26.4734 23.1733 26.4964 23.0872 26.4963 22.9996C26.4962 22.9119 26.4731 22.8259 26.4293 22.75C25.5462 21.2242 24.4998 17.5317 24.4998 13C24.4998 10.7457 23.6043 8.58365 22.0103 6.98959C20.4162 5.39553 18.2542 4.5 15.9998 4.5C13.7455 4.5 11.5835 5.39553 9.98944 6.98959C8.39538 8.58365 7.49984 10.7457 7.49984 13C7.49984 17.5309 6.45452 21.2248 5.57272 22.7502M6.00155 23.5C5.91449 23.4992 5.82912 23.4758 5.75391 23.4319C5.67832 23.3878 5.61562 23.3246 5.57209 23.2487C5.52857 23.1728 5.50573 23.0868 5.50586 22.9993C5.50599 22.9118 5.52905 22.826 5.57272 22.7502M6.00155 23.5C6.00198 23.5 6.00242 23.5 6.00285 23.5L5.99984 24V23.5H6.00155ZM5.57272 22.7502L5.13986 22.5L5.57285 22.75C5.57281 22.7501 5.57277 22.7502 5.57272 22.7502Z" fill="white" stroke="black"/>
<path d="M27.7245 21.9925C27.0308 20.7975 25.9995 17.4163 25.9995 13C25.9995 10.3478 24.946 7.8043 23.0706 5.92893C21.1952 4.05357 18.6517 3 15.9995 3C13.3474 3 10.8038 4.05357 8.92846 5.92893C7.0531 7.8043 5.99953 10.3478 5.99953 13C5.99953 17.4175 4.96703 20.7975 4.27328 21.9925C4.09612 22.2963 4.0022 22.6415 4.00099 22.9931C3.99978 23.3448 4.09133 23.6906 4.2664 23.9956C4.44147 24.3006 4.69388 24.5541 4.99816 24.7304C5.30244 24.9068 5.64784 24.9997 5.99953 25H11.1008C11.3315 26.1289 11.9451 27.1436 12.8377 27.8722C13.7303 28.6009 14.8472 28.9989 15.9995 28.9989C17.1518 28.9989 18.2687 28.6009 19.1614 27.8722C20.054 27.1436 20.6676 26.1289 20.8983 25H25.9995C26.3511 24.9995 26.6964 24.9064 27.0005 24.73C27.3046 24.5535 27.5568 24.3 27.7317 23.9951C27.9066 23.6901 27.9981 23.3444 27.9968 22.9928C27.9956 22.6412 27.9016 22.2962 27.7245 21.9925ZM15.9995 27C15.3793 26.9998 14.7744 26.8074 14.268 26.4492C13.7617 26.0911 13.3788 25.5848 13.172 25H18.827C18.6203 25.5848 18.2374 26.0911 17.731 26.4492C17.2247 26.8074 16.6198 26.9998 15.9995 27ZM5.99953 23C6.96203 21.345 7.99953 17.51 7.99953 13C7.99953 10.8783 8.84238 8.84344 10.3427 7.34315C11.843 5.84285 13.8778 5 15.9995 5C18.1213 5 20.1561 5.84285 21.6564 7.34315C23.1567 8.84344 23.9995 10.8783 23.9995 13C23.9995 17.5063 25.0345 21.3412 25.9995 23H5.99953Z" fill="white"/>
</svg>
